<?xml version="1.0" encoding="UTF-8"?>
<svg id="Layer_1" xmlns="http://www.w3.org/2000/svg" version="1.1" viewBox="0 0 250 150">
  <!-- Generator: Adobe Illustrator 29.7.1, SVG Export Plug-In . SVG Version: 2.1.1 Build 8)  -->
  <defs>
    <style>
      .st0 {
        fill: #f49e1e;
      }

      .st1 {
        fill: #fff;
      }

      .st2 {
        fill: #436db5;
      }
    </style>
  </defs>
  <path class="st2" d="M33.35,87.37l-1.2,1.15c-1.69,1.62-4.43,1.62-6.12,0L3.7,67.08c-1.69-1.62-1.69-4.26,0-5.88l1.2-1.15c1.69-1.62,4.43-1.62,6.12,0l22.33,21.44c1.69,1.62,1.69,4.26,0,5.88Z"/>
  <path class="st2" d="M24.16,67.81l10.06,9.55v-13.68s-.82-4.1-5.03-4.07c-4.23.03-5.03,3.29-5.03,4.12v4.07Z"/>
  <path class="st2" d="M13.01,81.13l-10.27-9.34.31,13.67s.91,4.08,5.12,3.96,4.95-3.39,4.93-4.23l-.09-4.07Z"/>
  <path class="st1" d="M38.7,72.85c0-8.21,6.46-13.27,13.15-13.27,8.11,0,11.94,5.47,11.94,12.26,0,1.52-.22,3.04-.38,3.65h-15.61c.88,3.04,3.29,4.05,6.35,4.05,1.86,0,3.62-.51,5.59-1.52l3.07,5.17c-2.96,1.93-6.9,2.94-9.97,2.94-8,0-14.13-4.86-14.13-13.27ZM55.79,69.81c0-1.93-.88-3.65-3.73-3.65-2.08,0-3.84,1.11-4.38,3.65h8.11Z"/>
  <path class="st1" d="M66.38,82.88l4.16-5.37c2.52,1.72,4.77,2.53,6.68,2.53s2.74-.51,2.74-1.52c0-1.32-2.52-1.93-5.26-2.94-3.18-1.17-6.9-3.34-6.9-7.5,0-4.96,4.38-8.21,10.85-8.21,4.49,0,7.67,1.67,10.08,3.34l-4.16,5.17c-1.97-1.32-3.89-2.13-5.59-2.13-1.59,0-2.41.4-2.41,1.42,0,1.32,2.41,1.82,5.15,2.74,3.29,1.11,7.01,3.04,7.01,7.6s-4.05,8.41-11.72,8.41c-3.51,0-7.78-1.42-10.63-3.55Z"/>
  <path class="st1" d="M94.93,75.79v-8.82h-3.62v-6.48l4.16-.3,1.1-6.59h7.78v6.59h6.25v6.79h-6.25v8.66c0,2.79,1.53,3.7,3.29,3.7.88,0,1.75-.2,2.41-.4l1.43,6.28c-1.43.41-3.45.91-6.47.91-7.12,0-10.08-4.15-10.08-10.34Z"/>
  <path class="st1" d="M125.18,81.42l5.37-5.98c2.52,1.88,5.7,3.19,8.33,3.19,2.85,0,4.05-.86,4.05-2.33,0-1.57-1.81-2.08-4.82-3.19l-4.44-1.72c-3.84-1.42-7.18-4.41-7.18-9.17,0-5.62,5.48-10.23,13.26-10.23,4.05,0,8.55,1.42,11.83,4.41l-4.71,5.47c-2.41-1.57-4.49-2.38-7.12-2.38-2.3,0-3.73.76-3.73,2.23,0,1.57,2.03,2.13,5.26,3.29l4.33,1.57c4.44,1.62,6.96,4.46,6.96,9.02,0,5.57-5.04,10.54-13.92,10.54-4.49,0-9.64-1.52-13.48-4.71Z"/>
  <path class="st1" d="M156.09,72.85c0-8.41,6.57-13.27,13.59-13.27s13.59,4.86,13.59,13.27-6.57,13.27-13.59,13.27-13.59-4.86-13.59-13.27ZM173.62,72.85c0-3.85-1.09-6.28-3.94-6.28s-3.94,2.43-3.94,6.28,1.1,6.28,3.94,6.28,3.94-2.43,3.94-6.28Z"/>
  <path class="st1" d="M187.98,75.79v-15.6h9.42v14.49c0,3.24.88,4.05,2.74,4.05,1.75,0,2.74-.61,3.94-2.23v-16.31h9.42v25.33h-7.67l-.66-3.34h-.22c-2.19,2.43-4.71,3.95-8.44,3.95-6.03,0-8.55-4.05-8.55-10.34Z"/>
  <path class="st1" d="M235.86,87.19l.33-3.6c-1.64,1.52-4.16,2.53-6.35,2.53-6.79,0-11.18-5.07-11.18-13.27s5.59-13.27,11.18-13.27c2.9,0,5.04.91,7.12,3.14h.22l.77-2.53h7.34v34.25h-9.42v-7.25ZM235.86,77.21v-9.32c-1.1-.91-2.52-1.22-3.72-1.22-1.97,0-3.84,1.62-3.84,6.08s1.53,6.28,4.05,6.28c1.43,0,2.52-.41,3.51-1.82Z"/>
  <path class="st0" d="M30.09,91.85s5.4.82,7.27-6.38l4.96,10.91-12.23-4.53Z"/>
</svg>